<mxfile host="app.diagrams.net" modified="2021-01-09T06:30:50.331Z" agent="5.0 (Windows NT 10.0; Win64; x64) AppleWebKit/537.36 (KHTML, like Gecko) Chrome/87.0.4280.88 Safari/537.36" etag="Rnmz5Y1DtRZ1-RRO1rIM" version="14.1.1" type="github">
  <diagram id="85_IgZHyugIZ9tiZPMlV" name="Page-1">
    <mxGraphModel dx="1038" dy="617" grid="1" gridSize="10" guides="1" tooltips="1" connect="1" arrows="1" fold="1" page="1" pageScale="1" pageWidth="850" pageHeight="1100" math="0" shadow="0">
      <root>
        <mxCell id="0" />
        <mxCell id="1" parent="0" />
        <mxCell id="6U5VEZpOiwuQzeDYIyCQ-1" value="Böcker" style="whiteSpace=wrap;html=1;align=center;" parent="1" vertex="1">
          <mxGeometry x="375" y="260" width="100" height="40" as="geometry" />
        </mxCell>
        <mxCell id="6U5VEZpOiwuQzeDYIyCQ-4" value="Sidantal" style="ellipse;whiteSpace=wrap;html=1;align=center;" parent="1" vertex="1">
          <mxGeometry x="340" y="150" width="100" height="40" as="geometry" />
        </mxCell>
        <mxCell id="6U5VEZpOiwuQzeDYIyCQ-5" value="Förlag" style="ellipse;whiteSpace=wrap;html=1;align=center;" parent="1" vertex="1">
          <mxGeometry x="490" y="160" width="100" height="40" as="geometry" />
        </mxCell>
        <mxCell id="6U5VEZpOiwuQzeDYIyCQ-6" value="Införskaffad" style="ellipse;whiteSpace=wrap;html=1;align=center;" parent="1" vertex="1">
          <mxGeometry x="210" y="180" width="100" height="40" as="geometry" />
        </mxCell>
        <mxCell id="6U5VEZpOiwuQzeDYIyCQ-7" value="Språk" style="ellipse;whiteSpace=wrap;html=1;align=center;" parent="1" vertex="1">
          <mxGeometry x="580" y="230" width="100" height="40" as="geometry" />
        </mxCell>
        <mxCell id="KLwTKIMUXPMPSgcIbldk-1" value="" style="endArrow=none;html=1;rounded=0;entryX=0;entryY=0.75;entryDx=0;entryDy=0;exitX=0.988;exitY=0.71;exitDx=0;exitDy=0;exitPerimeter=0;" parent="1" source="6U5VEZpOiwuQzeDYIyCQ-6" target="6U5VEZpOiwuQzeDYIyCQ-1" edge="1">
          <mxGeometry relative="1" as="geometry">
            <mxPoint x="280" y="300" as="sourcePoint" />
            <mxPoint x="440" y="300" as="targetPoint" />
          </mxGeometry>
        </mxCell>
        <mxCell id="KLwTKIMUXPMPSgcIbldk-2" value="" style="endArrow=none;html=1;rounded=0;entryX=0;entryY=1;entryDx=0;entryDy=0;" parent="1" target="6U5VEZpOiwuQzeDYIyCQ-7" edge="1">
          <mxGeometry relative="1" as="geometry">
            <mxPoint x="480" y="290" as="sourcePoint" />
            <mxPoint x="670" y="310" as="targetPoint" />
          </mxGeometry>
        </mxCell>
        <mxCell id="KLwTKIMUXPMPSgcIbldk-3" value="" style="endArrow=none;html=1;rounded=0;exitX=0.822;exitY=0.05;exitDx=0;exitDy=0;exitPerimeter=0;entryX=0.416;entryY=1.05;entryDx=0;entryDy=0;entryPerimeter=0;" parent="1" source="6U5VEZpOiwuQzeDYIyCQ-1" target="6U5VEZpOiwuQzeDYIyCQ-5" edge="1">
          <mxGeometry relative="1" as="geometry">
            <mxPoint x="370" y="220" as="sourcePoint" />
            <mxPoint x="530" y="210" as="targetPoint" />
          </mxGeometry>
        </mxCell>
        <mxCell id="KLwTKIMUXPMPSgcIbldk-5" value="" style="endArrow=none;html=1;rounded=0;exitX=0.5;exitY=1;exitDx=0;exitDy=0;entryX=0.5;entryY=0;entryDx=0;entryDy=0;" parent="1" source="6U5VEZpOiwuQzeDYIyCQ-4" target="6U5VEZpOiwuQzeDYIyCQ-1" edge="1">
          <mxGeometry relative="1" as="geometry">
            <mxPoint x="320" y="220" as="sourcePoint" />
            <mxPoint x="480" y="220" as="targetPoint" />
          </mxGeometry>
        </mxCell>
        <mxCell id="KLwTKIMUXPMPSgcIbldk-6" value="BöckerID" style="ellipse;whiteSpace=wrap;html=1;align=center;fontStyle=4;" parent="1" vertex="1">
          <mxGeometry x="200" y="250" width="100" height="40" as="geometry" />
        </mxCell>
        <mxCell id="pz_9ZaVVxgxVj9bDNxKF-1" value="Författare" style="whiteSpace=wrap;html=1;align=center;" parent="1" vertex="1">
          <mxGeometry x="380" y="550" width="100" height="40" as="geometry" />
        </mxCell>
        <mxCell id="pz_9ZaVVxgxVj9bDNxKF-2" value="Skriven" style="shape=rhombus;perimeter=rhombusPerimeter;whiteSpace=wrap;html=1;align=center;" parent="1" vertex="1">
          <mxGeometry x="370" y="390" width="120" height="60" as="geometry" />
        </mxCell>
        <mxCell id="pz_9ZaVVxgxVj9bDNxKF-3" value="" style="endArrow=none;html=1;rounded=0;exitX=1;exitY=1;exitDx=0;exitDy=0;" parent="1" source="KLwTKIMUXPMPSgcIbldk-6" edge="1">
          <mxGeometry relative="1" as="geometry">
            <mxPoint x="220" y="300" as="sourcePoint" />
            <mxPoint x="380" y="300" as="targetPoint" />
          </mxGeometry>
        </mxCell>
        <mxCell id="pz_9ZaVVxgxVj9bDNxKF-4" value="" style="endArrow=none;html=1;rounded=0;entryX=0.5;entryY=1;entryDx=0;entryDy=0;exitX=0.5;exitY=0;exitDx=0;exitDy=0;" parent="1" source="pz_9ZaVVxgxVj9bDNxKF-2" target="6U5VEZpOiwuQzeDYIyCQ-1" edge="1">
          <mxGeometry relative="1" as="geometry">
            <mxPoint x="430" y="380" as="sourcePoint" />
            <mxPoint x="470" y="350" as="targetPoint" />
          </mxGeometry>
        </mxCell>
        <mxCell id="pz_9ZaVVxgxVj9bDNxKF-5" value="" style="endArrow=none;html=1;rounded=0;entryX=0.5;entryY=1;entryDx=0;entryDy=0;exitX=0.5;exitY=0;exitDx=0;exitDy=0;" parent="1" source="pz_9ZaVVxgxVj9bDNxKF-1" target="pz_9ZaVVxgxVj9bDNxKF-2" edge="1">
          <mxGeometry relative="1" as="geometry">
            <mxPoint x="430" y="540" as="sourcePoint" />
            <mxPoint x="350" y="490" as="targetPoint" />
          </mxGeometry>
        </mxCell>
        <mxCell id="pz_9ZaVVxgxVj9bDNxKF-6" value="N" style="text;html=1;align=center;verticalAlign=middle;resizable=0;points=[];autosize=1;strokeWidth=3;" parent="1" vertex="1">
          <mxGeometry x="430" y="520" width="20" height="20" as="geometry" />
        </mxCell>
        <mxCell id="pz_9ZaVVxgxVj9bDNxKF-7" value="M" style="text;html=1;align=center;verticalAlign=middle;resizable=0;points=[];autosize=1;" parent="1" vertex="1">
          <mxGeometry x="425" y="300" width="30" height="20" as="geometry" />
        </mxCell>
        <mxCell id="YXYmgETGumNXy2IcOnov-1" value="FörfattareNamn" style="ellipse;whiteSpace=wrap;html=1;align=center;" vertex="1" parent="1">
          <mxGeometry x="570" y="530" width="100" height="40" as="geometry" />
        </mxCell>
        <mxCell id="YXYmgETGumNXy2IcOnov-2" value="FörfattareID" style="ellipse;whiteSpace=wrap;html=1;align=center;fontStyle=4;" vertex="1" parent="1">
          <mxGeometry x="220" y="530" width="100" height="40" as="geometry" />
        </mxCell>
        <mxCell id="YXYmgETGumNXy2IcOnov-3" value="" style="endArrow=none;html=1;rounded=0;entryX=0;entryY=0.25;entryDx=0;entryDy=0;exitX=1;exitY=0.5;exitDx=0;exitDy=0;" edge="1" parent="1" source="YXYmgETGumNXy2IcOnov-2" target="pz_9ZaVVxgxVj9bDNxKF-1">
          <mxGeometry relative="1" as="geometry">
            <mxPoint x="230" y="510" as="sourcePoint" />
            <mxPoint x="390" y="510" as="targetPoint" />
          </mxGeometry>
        </mxCell>
        <mxCell id="YXYmgETGumNXy2IcOnov-4" value="" style="endArrow=none;html=1;rounded=0;exitX=1;exitY=0.5;exitDx=0;exitDy=0;entryX=0;entryY=0.5;entryDx=0;entryDy=0;" edge="1" parent="1" source="pz_9ZaVVxgxVj9bDNxKF-1" target="YXYmgETGumNXy2IcOnov-1">
          <mxGeometry relative="1" as="geometry">
            <mxPoint x="490" y="510" as="sourcePoint" />
            <mxPoint x="650" y="510" as="targetPoint" />
          </mxGeometry>
        </mxCell>
      </root>
    </mxGraphModel>
  </diagram>
</mxfile>
